<?xml version="1.0" standalone="no"?>
<!DOCTYPE svg PUBLIC "-//W3C//DTD SVG 20010904//EN"
 "http://www.w3.org/TR/2001/REC-SVG-20010904/DTD/svg10.dtd">
<svg version="1.0" xmlns="http://www.w3.org/2000/svg"
 width="250.000000pt" height="250.000000pt" viewBox="0 0 250.000000 250.000000"
 preserveAspectRatio="xMidYMid meet">

<g transform="translate(0.000000,250.000000) scale(0.100000,-0.100000)"
 stroke="none">
<path d="M1193 2338 c-143 -186 -219 -310 -254 -416 -17 -52 -21 -81 -17 -156
4 -81 9 -104 52 -206 91 -221 144 -367 172 -478 l29 -112 81 0 81 0 17 83 c22
100 87 299 155 468 60 151 75 228 60 319 -18 115 -110 280 -267 483 l-60 78
-49 -63z"/>
<path d="M471 1595 c-86 -32 -130 -70 -170 -147 -52 -101 -53 -232 -4 -333 19
-38 80 -102 114 -121 42 -21 118 -35 156 -28 l34 6 -19 22 c-96 105 -51 250
78 250 102 0 233 -98 287 -214 l28 -60 63 0 c34 0 62 4 62 9 0 53 -66 256
-115 355 -119 241 -308 338 -514 261z"/>
<path d="M1780 1603 c-96 -33 -169 -103 -245 -231 -43 -73 -117 -278 -130
-359 l-7 -43 64 0 63 0 28 60 c74 159 272 263 363 191 39 -30 53 -58 54 -104
0 -40 -20 -88 -52 -123 l-19 -22 34 -6 c38 -7 114 7 156 28 42 23 98 87 123
141 18 41 22 68 23 146 0 90 -2 100 -35 165 -41 81 -90 122 -181 153 -75 25
-174 27 -239 4z"/>
<path d="M993 912 l-63 -3 0 -49 0 -50 321 0 320 0 -3 52 -3 52 -255 1 c-140
0 -283 -1 -317 -3z"/>
<path d="M983 729 l-12 -31 -31 26 c-85 71 -226 -11 -206 -118 14 -73 121
-130 201 -106 69 21 148 127 170 228 l7 32 -59 0 c-56 0 -59 -1 -70 -31z"/>
<path d="M1155 695 c-36 -135 -103 -239 -179 -280 -42 -23 -45 -45 -16 -93 20
-32 86 -71 122 -72 11 0 24 -14 33 -36 19 -47 48 -83 90 -111 l35 -24 34 23
c42 29 84 78 97 115 8 24 19 32 60 42 56 15 102 49 124 92 8 15 15 30 15 33 0
2 -24 18 -54 35 -86 48 -148 148 -186 299 l-11 42 -73 0 -73 0 -18 -65z"/>
<path d="M1386 733 c14 -57 62 -149 98 -185 53 -54 100 -66 173 -42 43 14 63
27 80 53 77 115 -64 246 -180 167 l-36 -24 -10 29 c-10 28 -13 29 -71 29 l-60
0 6 -27z"/>
</g>
</svg>
